<?xml version="1.0" standalone="no"?>
<!DOCTYPE svg PUBLIC "-//W3C//DTD SVG 20010904//EN"
 "http://www.w3.org/TR/2001/REC-SVG-20010904/DTD/svg10.dtd">
<svg version="1.0" xmlns="http://www.w3.org/2000/svg"
 width="690.000000pt" height="1280.000000pt" viewBox="0 0 690.000000 1280.000000"
 preserveAspectRatio="xMidYMid meet">
<metadata>
Created by potrace 1.15, written by Peter Selinger 2001-2017
</metadata>
<g transform="translate(0.000000,1280.000000) scale(0.100000,-0.100000)"
fill="#000000" stroke="none">
<path d="M3385 12793 c-244 -34 -468 -198 -571 -420 -54 -115 -67 -186 -61
-348 8 -247 51 -347 210 -501 135 -131 185 -160 353 -204 128 -34 152 -34 302
-4 185 38 282 92 413 232 132 140 190 287 192 482 3 322 -170 596 -449 713
-110 47 -267 67 -389 50z"/>
<path d="M4413 10685 c-94 -21 -215 -88 -288 -160 -77 -76 -129 -177 -145
-281 -49 -313 247 -622 551 -575 192 30 344 141 426 310 30 62 36 87 41 161 4
71 1 99 -17 151 -47 141 -180 293 -316 360 -94 46 -161 55 -252 34z"/>
<path d="M2454 10531 c-89 -51 -133 -148 -112 -246 36 -172 321 -239 415 -97
48 73 35 216 -26 292 -68 85 -181 106 -277 51z"/>
<path d="M1780 9070 c-248 -12 -310 -27 -432 -105 -343 -223 -348 -634 -10
-859 91 -60 157 -85 260 -95 143 -15 249 -68 350 -175 100 -106 156 -213 190
-366 24 -106 23 -441 -2 -600 -23 -153 -61 -339 -97 -484 -86 -340 -139 -472
-999 -2480 -784 -1832 -859 -2015 -939 -2290 -69 -233 -95 -375 -95 -516 -1
-149 12 -199 104 -385 159 -324 396 -513 785 -627 289 -85 242 -83 2750 -81
l2160 1 170 62 c212 77 343 144 466 237 224 169 380 401 444 662 55 228 -70
631 -572 1836 -144 346 -146 350 -491 1160 -858 2012 -939 2222 -1026 2670
-91 465 -83 813 23 1023 102 202 275 332 469 352 138 15 247 63 350 155 111
100 154 200 155 360 0 171 -36 260 -147 361 -85 78 -195 141 -282 159 -38 8
-159 19 -269 25 -227 11 -3075 11 -3315 0z"/>
</g>
</svg>
